<?xml version="1.0" standalone="no"?>
<svg version="1.0" xmlns="http://www.w3.org/2000/svg"
  viewBox="0 0 620.000000 515.000000"
 preserveAspectRatio="xMidYMid meet">

<g transform="translate(0.000000,515.000000) scale(0.100000,-0.100000)"
fill="#000000" stroke="none">
<path d="M1958 4018 c-47 -12 -113 -69 -141 -122 l-22 -41 0 -675 0 -675 22
-41 c23 -44 65 -83 117 -112 28 -15 78 -17 469 -20 l437 -3 0 -48 0 -49 -149
-3 c-163 -4 -178 -9 -225 -73 -19 -25 -21 -42 -21 -176 0 -162 4 -176 69 -224
27 -20 41 -21 463 -24 424 -3 437 -2 479 18 49 24 84 83 84 143 l0 37 264 0
c320 0 296 13 296 -156 0 -110 -1 -113 -26 -133 -27 -21 -30 -21 -1083 -21
-940 0 -1059 2 -1079 16 -21 14 -22 22 -22 144 0 118 2 130 19 140 12 6 96 10
205 10 173 0 187 1 206 20 24 24 24 30 6 56 -14 18 -28 19 -225 19 -196 0
-211 -1 -237 -21 -63 -46 -69 -64 -72 -210 -3 -121 -1 -139 18 -179 16 -32 32
-49 64 -64 23 -12 48 -21 54 -21 16 0 15 -36 -3 -98 -10 -34 -32 -69 -65 -105
-64 -70 -130 -100 -222 -101 -123 0 -247 86 -288 202 -10 27 -15 132 -17 397
l-4 360 30 17 c17 9 40 32 51 50 18 30 20 50 20 246 0 239 -6 217 82 284 52
39 71 87 66 164 -3 52 -9 70 -34 100 -52 65 -91 79 -234 82 -146 4 -195 -6
-247 -51 -103 -90 -92 -241 22 -312 55 -34 55 -34 55 -254 0 -184 2 -209 20
-246 11 -22 33 -48 49 -58 l30 -17 3 -378 c4 -421 4 -422 78 -520 82 -108 184
-157 325 -157 80 0 97 4 157 32 115 54 210 172 224 279 3 21 7 49 10 61 l4 23
1028 2 1027 3 31 22 c54 39 64 74 64 226 0 123 -2 137 -22 167 -13 18 -36 43
-51 54 -27 20 -40 21 -302 21 l-273 0 -4 53 c-5 56 -25 91 -72 126 -24 18 -45
21 -177 25 l-149 3 0 49 0 48 438 3 c404 3 440 4 472 22 49 26 88 64 113 111
22 40 22 46 25 695 2 497 0 666 -10 700 -17 64 -97 142 -160 158 -60 15 -2003
15 -2060 0z m2033 -89 c47 -16 84 -53 98 -98 8 -27 11 -221 11 -657 0 -589 -1
-621 -20 -661 -11 -25 -33 -51 -52 -63 -33 -20 -48 -20 -1037 -20 -1002 0
-1004 0 -1038 21 -66 41 -64 11 -63 731 0 736 -4 693 80 736 l44 22 972 0
c698 0 981 -3 1005 -11z m-2552 -914 c65 -33 65 -131 1 -171 -84 -52 -100 -84
-100 -200 l0 -64 -55 0 -55 0 0 83 c0 97 -16 132 -80 172 -55 34 -78 82 -60
125 26 62 48 70 192 70 93 0 137 -4 157 -15z m-99 -616 c0 -96 -10 -119 -50
-119 -45 0 -60 31 -60 122 l0 78 55 0 55 0 0 -81z m1700 -119 l0 -50 -50 0
-50 0 0 50 0 50 50 0 50 0 0 -50z m394 -172 c12 -17 16 -49 16 -131 0 -101 -2
-109 -25 -132 l-24 -25 -403 0 c-305 0 -409 3 -428 13 -24 12 -25 15 -28 142
-2 113 0 131 15 142 13 10 115 13 439 13 l423 0 15 -22z"/>
<path d="M2007 3812 c-15 -17 -17 -75 -17 -630 0 -599 0 -612 20 -632 20 -20
33 -20 778 -20 669 0 760 2 780 16 28 19 28 49 0 68 -20 14 -108 16 -750 16
l-728 0 0 555 0 555 903 -2 902 -3 3 -552 2 -553 -74 0 c-99 0 -126 -11 -126
-49 0 -43 23 -51 142 -51 78 0 109 4 126 16 l22 15 0 619 c0 549 -2 620 -16
634 -14 14 -117 16 -983 16 -925 0 -969 -1 -984 -18z"/>
<path d="M2807 3588 c-14 -18 -113 -167 -222 -330 -157 -235 -196 -302 -192
-320 12 -46 184 -130 356 -175 78 -20 122 -25 231 -25 180 -2 330 32 474 104
107 54 136 76 136 103 0 27 -412 651 -441 669 -12 7 -31 3 -67 -12 -63 -27
-124 -28 -181 -2 -58 27 -66 25 -94 -12z m183 -93 c47 0 94 3 106 8 18 6 29
-6 87 -93 37 -55 67 -104 67 -108 0 -11 -31 -27 -90 -48 -59 -20 -201 -29
-269 -16 -61 11 -77 8 -92 -19 -28 -52 39 -80 191 -80 106 0 196 18 272 56
l48 24 30 -44 31 -44 -53 -27 c-85 -43 -175 -65 -288 -70 -133 -6 -147 -10
-155 -34 -18 -56 47 -76 202 -60 101 11 201 39 287 81 65 32 61 34 101 -33
l16 -27 -70 -36 c-256 -128 -590 -126 -854 7 l-58 29 31 44 31 45 59 -30 c70
-35 105 -38 120 -10 18 34 3 55 -60 85 -33 16 -60 32 -60 37 0 9 158 248 164
248 1 0 29 -9 61 -20 32 -11 84 -20 116 -20 49 0 60 3 69 21 9 16 8 26 -4 43
-11 18 -27 24 -76 29 -50 6 -90 17 -108 32 -2 2 2 12 10 24 9 15 18 19 33 13
11 -4 58 -7 105 -7z"/>
<path d="M2690 2022 c-24 -3 -50 -26 -50 -44 0 -22 42 -48 80 -48 49 0 79 35
60 69 -6 12 -16 21 -23 22 -7 0 -19 2 -27 3 -8 1 -26 0 -40 -2z"/>
<path d="M2924 2020 c-30 -12 -37 -47 -13 -71 15 -15 33 -19 84 -19 57 0 66 3
80 24 13 19 14 29 5 45 -9 17 -20 21 -60 21 -26 0 -54 2 -62 4 -7 3 -23 1 -34
-4z"/>
<path d="M3223 2020 c-30 -12 -32 -65 -4 -80 46 -24 121 -2 121 36 0 36 -72
63 -117 44z"/>
<path d="M1200 3571 c-79 -15 -120 -37 -120 -65 0 -14 9 -31 21 -39 17 -13 26
-13 67 0 61 18 174 18 235 -1 54 -16 73 -13 88 16 17 31 -11 63 -68 77 -64 17
-168 22 -223 12z"/>
<path d="M1212 3369 c-49 -12 -74 -47 -55 -77 8 -14 29 -17 127 -17 81 -1 120
3 127 12 17 20 6 57 -22 70 -37 18 -127 24 -177 12z"/>
</g>
</svg>
